<?xml version="1.0" encoding="utf-8"?>
<!-- Generator: Adobe Illustrator 16.0.0, SVG Export Plug-In . SVG Version: 6.00 Build 0)  -->
<!DOCTYPE svg PUBLIC "-//W3C//DTD SVG 1.1//EN" "http://www.w3.org/Graphics/SVG/1.1/DTD/svg11.dtd">
<svg version="1.1" id="Layer_1" xmlns="http://www.w3.org/2000/svg" xmlns:xlink="http://www.w3.org/1999/xlink" x="0px" y="0px"
	 width="436px" height="575px" viewBox="0 0 436 575" enable-background="new 0 0 436 575" xml:space="preserve">
<g>
	<g>
		<g>
			<text transform="matrix(1 0 0 1 5.001 481.0557)" font-family="'Corbel'" font-size="649.5931">C</text>
		</g>
		<g>
			<text transform="matrix(0.9653 0 0 1 129 320.5088)" font-family="'Corbel'" font-size="172.7934">ode</text>
		</g>
		<g>
			<text transform="matrix(1 0 0 1 327.001 117.5273)" font-family="'Calibri'" font-size="484.9887">.</text>
		</g>
		<g>
			<text transform="matrix(1.7343 0 0 1 341.0005 516)" font-family="'Calibri'" font-size="200">I</text>
		</g>
	</g>
	<g>
		<g>
			<g>
				<linearGradient id="SVGID_1_" gradientUnits="userSpaceOnUse" x1="43.063" y1="282.6602" x2="413.6738" y2="282.6602">
					<stop  offset="0" style="stop-color:#77B3E2"/>
					<stop  offset="0.1291" style="stop-color:#6BAEE0"/>
					<stop  offset="0.3438" style="stop-color:#44A2DA"/>
					<stop  offset="0.5843" style="stop-color:#0091D2"/>
					<stop  offset="1" style="stop-color:#007AC0"/>
				</linearGradient>
				<path fill="url(#SVGID_1_)" d="M264.007,94.726c-23.764,0-45.977,3.756-66.634,11.26c-20.662,7.508-38.592,18.714-53.792,33.622
					c-15.205,14.908-27.193,33.414-35.971,55.507c-8.777,22.099-13.163,47.845-13.163,77.234c0,29.181,4.064,54.506,12.202,75.966
					c8.133,21.464,19.69,39.227,34.677,53.286c14.982,14.065,33.017,24.479,54.1,31.243c21.083,6.77,44.574,10.149,70.475,10.149
					c7.062,0,14.556-0.366,22.475-1.109c7.92-0.739,15.889-1.795,23.918-3.172c8.029-1.373,15.839-2.959,23.442-4.758
					c7.598-1.794,14.392-3.752,20.389-5.868v45.675c-12.479,4.866-26.961,8.613-43.455,11.26
					c-16.494,2.642-33.413,3.965-50.75,3.965c-35.316,0-66.608-4.916-93.886-14.749s-50.17-23.947-68.67-42.344
					c-18.506-18.397-32.511-40.862-42.027-67.402c-9.516-26.534-14.273-56.617-14.273-90.238c0-32.987,5.021-63.328,15.066-91.032
					c10.041-27.699,24.527-51.488,43.454-71.366c18.922-19.874,41.868-35.366,68.829-46.468
					c26.96-11.102,57.251-16.652,90.873-16.652c8.881,0,17.653,0.372,26.326,1.11c8.668,0.744,16.97,1.799,24.899,3.172
					c7.93,1.378,15.274,3.013,22.044,4.917c6.765,1.903,12.579,3.915,17.445,6.026v45.674c-12.846-4.227-26.872-7.771-42.072-10.625
					C294.729,96.153,279.42,94.726,264.007,94.726z"/>
			</g>
			<g>
				<linearGradient id="SVGID_2_" gradientUnits="userSpaceOnUse" x1="43.063" y1="282.6602" x2="413.6738" y2="282.6602">
					<stop  offset="0" style="stop-color:#77B3E2"/>
					<stop  offset="0.1291" style="stop-color:#6BAEE0"/>
					<stop  offset="0.3438" style="stop-color:#44A2DA"/>
					<stop  offset="0.5843" style="stop-color:#0091D2"/>
					<stop  offset="1" style="stop-color:#007AC0"/>
				</linearGradient>
				<path fill="url(#SVGID_2_)" d="M264.007,94.726c-23.764,0-45.977,3.756-66.634,11.26c-20.662,7.508-38.592,18.714-53.792,33.622
					c-15.205,14.908-27.193,33.414-35.971,55.507c-8.777,22.099-13.163,47.845-13.163,77.234c0,29.181,4.064,54.506,12.202,75.966
					c8.133,21.464,19.69,39.227,34.677,53.286c14.982,14.065,33.017,24.479,54.1,31.243c21.083,6.77,44.574,10.149,70.475,10.149
					c7.062,0,14.556-0.366,22.475-1.109c7.92-0.739,15.889-1.795,23.918-3.172c8.029-1.373,15.839-2.959,23.442-4.758
					c7.598-1.794,14.392-3.752,20.389-5.868v45.675c-12.479,4.866-26.961,8.613-43.455,11.26
					c-16.494,2.642-33.413,3.965-50.75,3.965c-35.316,0-66.608-4.916-93.886-14.749s-50.17-23.947-68.67-42.344
					c-18.506-18.397-32.511-40.862-42.027-67.402c-9.516-26.534-14.273-56.617-14.273-90.238c0-32.987,5.021-63.328,15.066-91.032
					c10.041-27.699,24.527-51.488,43.454-71.366c18.922-19.874,41.868-35.366,68.829-46.468
					c26.96-11.102,57.251-16.652,90.873-16.652c8.881,0,17.653,0.372,26.326,1.11c8.668,0.744,16.97,1.799,24.899,3.172
					c7.93,1.378,15.274,3.013,22.044,4.917c6.765,1.903,12.579,3.915,17.445,6.026v45.674c-12.846-4.227-26.872-7.771-42.072-10.625
					C294.729,96.153,279.42,94.726,264.007,94.726z"/>
			</g>
			<g>
				<linearGradient id="SVGID_3_" gradientUnits="userSpaceOnUse" x1="43.063" y1="282.6602" x2="413.6738" y2="282.6602">
					<stop  offset="0" style="stop-color:#77B3E2"/>
					<stop  offset="0.1291" style="stop-color:#6BAEE0"/>
					<stop  offset="0.3438" style="stop-color:#44A2DA"/>
					<stop  offset="0.5843" style="stop-color:#0091D2"/>
					<stop  offset="1" style="stop-color:#007AC0"/>
				</linearGradient>
				<path fill="url(#SVGID_3_)" d="M264.007,94.726c-23.764,0-45.977,3.756-66.634,11.26c-20.662,7.508-38.592,18.714-53.792,33.622
					c-15.205,14.908-27.193,33.414-35.971,55.507c-8.777,22.099-13.163,47.845-13.163,77.234c0,29.181,4.064,54.506,12.202,75.966
					c8.133,21.464,19.69,39.227,34.677,53.286c14.982,14.065,33.017,24.479,54.1,31.243c21.083,6.77,44.574,10.149,70.475,10.149
					c7.062,0,14.556-0.366,22.475-1.109c7.92-0.739,15.889-1.795,23.918-3.172c8.029-1.373,15.839-2.959,23.442-4.758
					c7.598-1.794,14.392-3.752,20.389-5.868v45.675c-12.479,4.866-26.961,8.613-43.455,11.26
					c-16.494,2.642-33.413,3.965-50.75,3.965c-35.316,0-66.608-4.916-93.886-14.749s-50.17-23.947-68.67-42.344
					c-18.506-18.397-32.511-40.862-42.027-67.402c-9.516-26.534-14.273-56.617-14.273-90.238c0-32.987,5.021-63.328,15.066-91.032
					c10.041-27.699,24.527-51.488,43.454-71.366c18.922-19.874,41.868-35.366,68.829-46.468
					c26.96-11.102,57.251-16.652,90.873-16.652c8.881,0,17.653,0.372,26.326,1.11c8.668,0.744,16.97,1.799,24.899,3.172
					c7.93,1.378,15.274,3.013,22.044,4.917c6.765,1.903,12.579,3.915,17.445,6.026v45.674c-12.846-4.227-26.872-7.771-42.072-10.625
					C294.729,96.153,279.42,94.726,264.007,94.726z"/>
			</g>
		</g>
		<g>
			<g>
				<linearGradient id="SVGID_4_" gradientUnits="userSpaceOnUse" x1="43.063" y1="282.6602" x2="413.6738" y2="282.6602">
					<stop  offset="0" style="stop-color:#77B3E2"/>
					<stop  offset="0.1291" style="stop-color:#6BAEE0"/>
					<stop  offset="0.3438" style="stop-color:#44A2DA"/>
					<stop  offset="0.5843" style="stop-color:#0091D2"/>
					<stop  offset="1" style="stop-color:#007AC0"/>
				</linearGradient>
				<path fill="url(#SVGID_4_)" d="M210.203,280.517c0,6.3-0.87,12.037-2.606,17.212c-1.738,5.176-4.194,9.605-7.371,13.288
					c-3.176,3.685-7.019,6.539-11.524,8.564c-4.508,2.024-9.558,3.037-15.149,3.037c-5.756,0-10.901-1.013-15.434-3.037
					c-4.534-2.025-8.389-4.88-11.565-8.564c-3.176-3.683-5.607-8.112-7.29-13.288c-1.684-5.175-2.525-10.912-2.525-17.212
					c0-6.355,0.868-12.12,2.606-17.296c1.737-5.174,4.194-9.618,7.371-13.331c3.176-3.712,7.031-6.581,11.565-8.606
					c4.533-2.025,9.597-3.038,15.189-3.038c5.702,0,10.833,1.013,15.394,3.038s8.416,4.894,11.565,8.606
					c3.148,3.712,5.565,8.156,7.249,13.331C209.36,268.396,210.203,274.161,210.203,280.517z M197.008,280.517
					c0-4.949-0.584-9.351-1.751-13.204c-1.168-3.852-2.797-7.115-4.887-9.787c-2.091-2.671-4.575-4.696-7.452-6.075
					c-2.879-1.378-6.027-2.067-9.448-2.067c-3.42,0-6.57,0.689-9.448,2.067c-2.878,1.379-5.363,3.404-7.452,6.075
					c-2.091,2.672-3.72,5.935-4.887,9.787c-1.168,3.854-1.751,8.255-1.751,13.204c0,4.894,0.583,9.268,1.751,13.12
					c1.167,3.854,2.81,7.102,4.927,9.744c2.118,2.645,4.615,4.655,7.493,6.033c2.877,1.379,6.027,2.067,9.448,2.067
					c3.421,0,6.557-0.688,9.407-2.067c2.851-1.378,5.321-3.389,7.412-6.033c2.09-2.643,3.719-5.891,4.887-9.744
					C196.424,289.784,197.008,285.41,197.008,280.517z"/>
				<linearGradient id="SVGID_5_" gradientUnits="userSpaceOnUse" x1="43.063" y1="282.6602" x2="413.6738" y2="282.6602">
					<stop  offset="0" style="stop-color:#77B3E2"/>
					<stop  offset="0.1291" style="stop-color:#6BAEE0"/>
					<stop  offset="0.3438" style="stop-color:#44A2DA"/>
					<stop  offset="0.5843" style="stop-color:#0091D2"/>
					<stop  offset="1" style="stop-color:#007AC0"/>
				</linearGradient>
				<path fill="url(#SVGID_5_)" d="M225.677,281.444c0-5.568,0.53-10.504,1.588-14.807c1.059-4.303,2.456-8.058,4.194-11.264
					c1.737-3.207,3.773-5.892,6.109-8.058c2.333-2.165,4.75-3.923,7.249-5.273c2.497-1.35,5.036-2.32,7.615-2.911
					c2.578-0.591,5.009-0.886,7.29-0.886c4.724,0,8.823,0.816,12.298,2.447c3.474,1.632,6.597,4.022,9.367,7.172h0.244v-49.526
					h12.624v122.17h-9.529l-2.606-8.943h-0.326c-0.978,1.295-2.118,2.603-3.421,3.923c-1.303,1.322-2.838,2.519-4.602,3.586
					c-1.765,1.069-3.801,1.927-6.108,2.573c-2.309,0.646-4.982,0.971-8.022,0.971c-4.235,0-8.389-0.746-12.461-2.236
					c-4.072-1.489-7.697-3.881-10.873-7.171c-3.176-3.291-5.742-7.537-7.697-12.74C226.655,295.269,225.677,288.926,225.677,281.444
					z M238.872,281.276c0,4.612,0.501,8.789,1.507,12.528c1.004,3.742,2.456,6.919,4.357,9.534c1.9,2.616,4.235,4.628,7.004,6.033
					c2.77,1.406,5.946,2.109,9.529,2.109c2.66,0,5.077-0.365,7.249-1.098c2.171-0.729,4.113-1.658,5.823-2.784
					c1.71-1.124,3.176-2.32,4.398-3.586s2.185-2.432,2.892-3.501V258.58c-2.606-2.755-5.62-4.963-9.041-6.624
					c-3.421-1.658-7.114-2.489-11.077-2.489c-2.39,0-4.901,0.464-7.534,1.392c-2.634,0.928-5.078,2.603-7.33,5.02
					c-2.254,2.419-4.113,5.667-5.579,9.745C239.605,269.704,238.872,274.92,238.872,281.276z"/>
				<linearGradient id="SVGID_6_" gradientUnits="userSpaceOnUse" x1="43.063" y1="282.6602" x2="413.6738" y2="282.6602">
					<stop  offset="0" style="stop-color:#77B3E2"/>
					<stop  offset="0.1291" style="stop-color:#6BAEE0"/>
					<stop  offset="0.3438" style="stop-color:#44A2DA"/>
					<stop  offset="0.5843" style="stop-color:#0091D2"/>
					<stop  offset="1" style="stop-color:#007AC0"/>
				</linearGradient>
				<path fill="url(#SVGID_6_)" d="M356.237,311.228c4.18,0,7.994-0.351,11.443-1.055c3.448-0.702,6.882-1.7,10.303-2.995v10.884
					c-2.769,1.407-6.19,2.518-10.262,3.333c-4.072,0.814-8.444,1.224-13.113,1.224c-5.539,0-10.738-0.731-15.597-2.193
					c-4.86-1.462-9.067-3.825-12.621-7.088c-3.553-3.261-6.336-7.522-8.348-12.782c-2.012-5.259-3.018-11.601-3.018-19.025
					c0-7.312,0.975-13.654,2.925-19.026c1.949-5.371,4.549-9.857,7.8-13.458c3.25-3.599,6.986-6.299,11.211-8.1
					c4.225-1.8,8.64-2.7,13.244-2.7c4.332,0,8.381,0.747,12.146,2.236c3.765,1.491,7.027,3.839,9.79,7.045
					c2.762,3.206,4.942,7.34,6.54,12.402c1.599,5.063,2.398,11.138,2.398,18.225c0,0.675,0,1.252,0,1.729
					c0,0.479-0.028,1.561-0.082,3.248h-53.429c0,5.119,0.746,9.465,2.24,13.036c1.493,3.572,3.529,6.469,6.108,8.689
					c2.579,2.223,5.606,3.839,9.082,4.852C348.471,310.722,352.218,311.228,356.237,311.228z M349.577,249.468
					c-2.915,0-5.621,0.591-8.123,1.772s-4.687,2.784-6.555,4.809c-1.87,2.025-3.381,4.402-4.536,7.129
					c-1.156,2.729-1.87,5.64-2.145,8.733h39.583c0-3.15-0.4-6.088-1.196-8.817c-0.797-2.728-1.965-5.104-3.505-7.129
					s-3.436-3.613-5.69-4.767C355.156,250.045,352.545,249.468,349.577,249.468z"/>
			</g>
			<g>
				<linearGradient id="SVGID_7_" gradientUnits="userSpaceOnUse" x1="43.063" y1="282.6602" x2="413.6738" y2="282.6602">
					<stop  offset="0" style="stop-color:#77B3E2"/>
					<stop  offset="0.1291" style="stop-color:#6BAEE0"/>
					<stop  offset="0.3438" style="stop-color:#44A2DA"/>
					<stop  offset="0.5843" style="stop-color:#0091D2"/>
					<stop  offset="1" style="stop-color:#007AC0"/>
				</linearGradient>
				<path fill="url(#SVGID_7_)" d="M210.203,280.517c0,6.3-0.87,12.037-2.606,17.212c-1.738,5.176-4.194,9.605-7.371,13.288
					c-3.176,3.685-7.019,6.539-11.524,8.564c-4.508,2.024-9.558,3.037-15.149,3.037c-5.756,0-10.901-1.013-15.434-3.037
					c-4.534-2.025-8.389-4.88-11.565-8.564c-3.176-3.683-5.607-8.112-7.29-13.288c-1.684-5.175-2.525-10.912-2.525-17.212
					c0-6.355,0.868-12.12,2.606-17.296c1.737-5.174,4.194-9.618,7.371-13.331c3.176-3.712,7.031-6.581,11.565-8.606
					c4.533-2.025,9.597-3.038,15.189-3.038c5.702,0,10.833,1.013,15.394,3.038s8.416,4.894,11.565,8.606
					c3.148,3.712,5.565,8.156,7.249,13.331C209.36,268.396,210.203,274.161,210.203,280.517z M197.008,280.517
					c0-4.949-0.584-9.351-1.751-13.204c-1.168-3.852-2.797-7.115-4.887-9.787c-2.091-2.671-4.575-4.696-7.452-6.075
					c-2.879-1.378-6.027-2.067-9.448-2.067c-3.42,0-6.57,0.689-9.448,2.067c-2.878,1.379-5.363,3.404-7.452,6.075
					c-2.091,2.672-3.72,5.935-4.887,9.787c-1.168,3.854-1.751,8.255-1.751,13.204c0,4.894,0.583,9.268,1.751,13.12
					c1.167,3.854,2.81,7.102,4.927,9.744c2.118,2.645,4.615,4.655,7.493,6.033c2.877,1.379,6.027,2.067,9.448,2.067
					c3.421,0,6.557-0.688,9.407-2.067c2.851-1.378,5.321-3.389,7.412-6.033c2.09-2.643,3.719-5.891,4.887-9.744
					C196.424,289.784,197.008,285.41,197.008,280.517z"/>
				<linearGradient id="SVGID_8_" gradientUnits="userSpaceOnUse" x1="43.063" y1="282.6602" x2="413.6738" y2="282.6602">
					<stop  offset="0" style="stop-color:#77B3E2"/>
					<stop  offset="0.1291" style="stop-color:#6BAEE0"/>
					<stop  offset="0.3438" style="stop-color:#44A2DA"/>
					<stop  offset="0.5843" style="stop-color:#0091D2"/>
					<stop  offset="1" style="stop-color:#007AC0"/>
				</linearGradient>
				<path fill="url(#SVGID_8_)" d="M225.677,281.444c0-5.568,0.53-10.504,1.588-14.807c1.059-4.303,2.456-8.058,4.194-11.264
					c1.737-3.207,3.773-5.892,6.109-8.058c2.333-2.165,4.75-3.923,7.249-5.273c2.497-1.35,5.036-2.32,7.615-2.911
					c2.578-0.591,5.009-0.886,7.29-0.886c4.724,0,8.823,0.816,12.298,2.447c3.474,1.632,6.597,4.022,9.367,7.172h0.244v-49.526
					h12.624v122.17h-9.529l-2.606-8.943h-0.326c-0.978,1.295-2.118,2.603-3.421,3.923c-1.303,1.322-2.838,2.519-4.602,3.586
					c-1.765,1.069-3.801,1.927-6.108,2.573c-2.309,0.646-4.982,0.971-8.022,0.971c-4.235,0-8.389-0.746-12.461-2.236
					c-4.072-1.489-7.697-3.881-10.873-7.171c-3.176-3.291-5.742-7.537-7.697-12.74C226.655,295.269,225.677,288.926,225.677,281.444
					z M238.872,281.276c0,4.612,0.501,8.789,1.507,12.528c1.004,3.742,2.456,6.919,4.357,9.534c1.9,2.616,4.235,4.628,7.004,6.033
					c2.77,1.406,5.946,2.109,9.529,2.109c2.66,0,5.077-0.365,7.249-1.098c2.171-0.729,4.113-1.658,5.823-2.784
					c1.71-1.124,3.176-2.32,4.398-3.586s2.185-2.432,2.892-3.501V258.58c-2.606-2.755-5.62-4.963-9.041-6.624
					c-3.421-1.658-7.114-2.489-11.077-2.489c-2.39,0-4.901,0.464-7.534,1.392c-2.634,0.928-5.078,2.603-7.33,5.02
					c-2.254,2.419-4.113,5.667-5.579,9.745C239.605,269.704,238.872,274.92,238.872,281.276z"/>
				<linearGradient id="SVGID_9_" gradientUnits="userSpaceOnUse" x1="43.063" y1="282.6602" x2="413.6738" y2="282.6602">
					<stop  offset="0" style="stop-color:#77B3E2"/>
					<stop  offset="0.1291" style="stop-color:#6BAEE0"/>
					<stop  offset="0.3438" style="stop-color:#44A2DA"/>
					<stop  offset="0.5843" style="stop-color:#0091D2"/>
					<stop  offset="1" style="stop-color:#007AC0"/>
				</linearGradient>
				<path fill="url(#SVGID_9_)" d="M356.237,311.228c4.18,0,7.994-0.351,11.443-1.055c3.448-0.702,6.882-1.7,10.303-2.995v10.884
					c-2.769,1.407-6.19,2.518-10.262,3.333c-4.072,0.814-8.444,1.224-13.113,1.224c-5.539,0-10.738-0.731-15.597-2.193
					c-4.86-1.462-9.067-3.825-12.621-7.088c-3.553-3.261-6.336-7.522-8.348-12.782c-2.012-5.259-3.018-11.601-3.018-19.025
					c0-7.312,0.975-13.654,2.925-19.026c1.949-5.371,4.549-9.857,7.8-13.458c3.25-3.599,6.986-6.299,11.211-8.1
					c4.225-1.8,8.64-2.7,13.244-2.7c4.332,0,8.381,0.747,12.146,2.236c3.765,1.491,7.027,3.839,9.79,7.045
					c2.762,3.206,4.942,7.34,6.54,12.402c1.599,5.063,2.398,11.138,2.398,18.225c0,0.675,0,1.252,0,1.729
					c0,0.479-0.028,1.561-0.082,3.248h-53.429c0,5.119,0.746,9.465,2.24,13.036c1.493,3.572,3.529,6.469,6.108,8.689
					c2.579,2.223,5.606,3.839,9.082,4.852C348.471,310.722,352.218,311.228,356.237,311.228z M349.577,249.468
					c-2.915,0-5.621,0.591-8.123,1.772s-4.687,2.784-6.555,4.809c-1.87,2.025-3.381,4.402-4.536,7.129
					c-1.156,2.729-1.87,5.64-2.145,8.733h39.583c0-3.15-0.4-6.088-1.196-8.817c-0.797-2.728-1.965-5.104-3.505-7.129
					s-3.436-3.613-5.69-4.767C355.156,250.045,352.545,249.468,349.577,249.468z"/>
			</g>
			<g>
				<linearGradient id="SVGID_10_" gradientUnits="userSpaceOnUse" x1="43.063" y1="282.6602" x2="413.6738" y2="282.6602">
					<stop  offset="0" style="stop-color:#77B3E2"/>
					<stop  offset="0.1291" style="stop-color:#6BAEE0"/>
					<stop  offset="0.3438" style="stop-color:#44A2DA"/>
					<stop  offset="0.5843" style="stop-color:#0091D2"/>
					<stop  offset="1" style="stop-color:#007AC0"/>
				</linearGradient>
				<path fill="url(#SVGID_10_)" d="M210.203,280.517c0,6.3-0.87,12.037-2.606,17.212c-1.738,5.176-4.194,9.605-7.371,13.288
					c-3.176,3.685-7.019,6.539-11.524,8.564c-4.508,2.024-9.558,3.037-15.149,3.037c-5.756,0-10.901-1.013-15.434-3.037
					c-4.534-2.025-8.389-4.88-11.565-8.564c-3.176-3.683-5.607-8.112-7.29-13.288c-1.684-5.175-2.525-10.912-2.525-17.212
					c0-6.355,0.868-12.12,2.606-17.296c1.737-5.174,4.194-9.618,7.371-13.331c3.176-3.712,7.031-6.581,11.565-8.606
					c4.533-2.025,9.597-3.038,15.189-3.038c5.702,0,10.833,1.013,15.394,3.038s8.416,4.894,11.565,8.606
					c3.148,3.712,5.565,8.156,7.249,13.331C209.36,268.396,210.203,274.161,210.203,280.517z M197.008,280.517
					c0-4.949-0.584-9.351-1.751-13.204c-1.168-3.852-2.797-7.115-4.887-9.787c-2.091-2.671-4.575-4.696-7.452-6.075
					c-2.879-1.378-6.027-2.067-9.448-2.067c-3.42,0-6.57,0.689-9.448,2.067c-2.878,1.379-5.363,3.404-7.452,6.075
					c-2.091,2.672-3.72,5.935-4.887,9.787c-1.168,3.854-1.751,8.255-1.751,13.204c0,4.894,0.583,9.268,1.751,13.12
					c1.167,3.854,2.81,7.102,4.927,9.744c2.118,2.645,4.615,4.655,7.493,6.033c2.877,1.379,6.027,2.067,9.448,2.067
					c3.421,0,6.557-0.688,9.407-2.067c2.851-1.378,5.321-3.389,7.412-6.033c2.09-2.643,3.719-5.891,4.887-9.744
					C196.424,289.784,197.008,285.41,197.008,280.517z"/>
				<linearGradient id="SVGID_11_" gradientUnits="userSpaceOnUse" x1="43.063" y1="282.6602" x2="413.6738" y2="282.6602">
					<stop  offset="0" style="stop-color:#77B3E2"/>
					<stop  offset="0.1291" style="stop-color:#6BAEE0"/>
					<stop  offset="0.3438" style="stop-color:#44A2DA"/>
					<stop  offset="0.5843" style="stop-color:#0091D2"/>
					<stop  offset="1" style="stop-color:#007AC0"/>
				</linearGradient>
				<path fill="url(#SVGID_11_)" d="M225.677,281.444c0-5.568,0.53-10.504,1.588-14.807c1.059-4.303,2.456-8.058,4.194-11.264
					c1.737-3.207,3.773-5.892,6.109-8.058c2.333-2.165,4.75-3.923,7.249-5.273c2.497-1.35,5.036-2.32,7.615-2.911
					c2.578-0.591,5.009-0.886,7.29-0.886c4.724,0,8.823,0.816,12.298,2.447c3.474,1.632,6.597,4.022,9.367,7.172h0.244v-49.526
					h12.624v122.17h-9.529l-2.606-8.943h-0.326c-0.978,1.295-2.118,2.603-3.421,3.923c-1.303,1.322-2.838,2.519-4.602,3.586
					c-1.765,1.069-3.801,1.927-6.108,2.573c-2.309,0.646-4.982,0.971-8.022,0.971c-4.235,0-8.389-0.746-12.461-2.236
					c-4.072-1.489-7.697-3.881-10.873-7.171c-3.176-3.291-5.742-7.537-7.697-12.74C226.655,295.269,225.677,288.926,225.677,281.444
					z M238.872,281.276c0,4.612,0.501,8.789,1.507,12.528c1.004,3.742,2.456,6.919,4.357,9.534c1.9,2.616,4.235,4.628,7.004,6.033
					c2.77,1.406,5.946,2.109,9.529,2.109c2.66,0,5.077-0.365,7.249-1.098c2.171-0.729,4.113-1.658,5.823-2.784
					c1.71-1.124,3.176-2.32,4.398-3.586s2.185-2.432,2.892-3.501V258.58c-2.606-2.755-5.62-4.963-9.041-6.624
					c-3.421-1.658-7.114-2.489-11.077-2.489c-2.39,0-4.901,0.464-7.534,1.392c-2.634,0.928-5.078,2.603-7.33,5.02
					c-2.254,2.419-4.113,5.667-5.579,9.745C239.605,269.704,238.872,274.92,238.872,281.276z"/>
				<linearGradient id="SVGID_12_" gradientUnits="userSpaceOnUse" x1="43.063" y1="282.6602" x2="413.6738" y2="282.6602">
					<stop  offset="0" style="stop-color:#77B3E2"/>
					<stop  offset="0.1291" style="stop-color:#6BAEE0"/>
					<stop  offset="0.3438" style="stop-color:#44A2DA"/>
					<stop  offset="0.5843" style="stop-color:#0091D2"/>
					<stop  offset="1" style="stop-color:#007AC0"/>
				</linearGradient>
				<path fill="url(#SVGID_12_)" d="M356.237,311.228c4.18,0,7.994-0.351,11.443-1.055c3.448-0.702,6.882-1.7,10.303-2.995v10.884
					c-2.769,1.407-6.19,2.518-10.262,3.333c-4.072,0.814-8.444,1.224-13.113,1.224c-5.539,0-10.738-0.731-15.597-2.193
					c-4.86-1.462-9.067-3.825-12.621-7.088c-3.553-3.261-6.336-7.522-8.348-12.782c-2.012-5.259-3.018-11.601-3.018-19.025
					c0-7.312,0.975-13.654,2.925-19.026c1.949-5.371,4.549-9.857,7.8-13.458c3.25-3.599,6.986-6.299,11.211-8.1
					c4.225-1.8,8.64-2.7,13.244-2.7c4.332,0,8.381,0.747,12.146,2.236c3.765,1.491,7.027,3.839,9.79,7.045
					c2.762,3.206,4.942,7.34,6.54,12.402c1.599,5.063,2.398,11.138,2.398,18.225c0,0.675,0,1.252,0,1.729
					c0,0.479-0.028,1.561-0.082,3.248h-53.429c0,5.119,0.746,9.465,2.24,13.036c1.493,3.572,3.529,6.469,6.108,8.689
					c2.579,2.223,5.606,3.839,9.082,4.852C348.471,310.722,352.218,311.228,356.237,311.228z M349.577,249.468
					c-2.915,0-5.621,0.591-8.123,1.772s-4.687,2.784-6.555,4.809c-1.87,2.025-3.381,4.402-4.536,7.129
					c-1.156,2.729-1.87,5.64-2.145,8.733h39.583c0-3.15-0.4-6.088-1.196-8.817c-0.797-2.728-1.965-5.104-3.505-7.129
					s-3.436-3.613-5.69-4.767C355.156,250.045,352.545,249.468,349.577,249.468z"/>
			</g>
		</g>
		<g>
			<g>
				<linearGradient id="SVGID_13_" gradientUnits="userSpaceOnUse" x1="43.063" y1="282.6602" x2="413.6738" y2="282.6602">
					<stop  offset="0" style="stop-color:#77B3E2"/>
					<stop  offset="0.1291" style="stop-color:#6BAEE0"/>
					<stop  offset="0.3438" style="stop-color:#44A2DA"/>
					<stop  offset="0.5843" style="stop-color:#0091D2"/>
					<stop  offset="1" style="stop-color:#007AC0"/>
				</linearGradient>
				<path fill="url(#SVGID_13_)" d="M413.674,91.715c0,11.212-1.857,18.671-5.565,22.379c-3.711,3.707-10.46,5.564-20.247,5.564
					c-9.473,0-16.025-1.816-19.655-5.446c-3.634-3.63-5.446-10.894-5.446-21.786c0-11.208,1.854-18.668,5.564-22.379
					c3.708-3.708,10.457-5.565,20.248-5.565c9.472,0,16.021,1.817,19.655,5.447C411.857,73.562,413.674,80.821,413.674,91.715z"/>
			</g>
			<g>
				<linearGradient id="SVGID_14_" gradientUnits="userSpaceOnUse" x1="43.063" y1="282.6602" x2="413.6738" y2="282.6602">
					<stop  offset="0" style="stop-color:#77B3E2"/>
					<stop  offset="0.1291" style="stop-color:#6BAEE0"/>
					<stop  offset="0.3438" style="stop-color:#44A2DA"/>
					<stop  offset="0.5843" style="stop-color:#0091D2"/>
					<stop  offset="1" style="stop-color:#007AC0"/>
				</linearGradient>
				<path fill="url(#SVGID_14_)" d="M413.674,91.715c0,11.212-1.857,18.671-5.565,22.379c-3.711,3.707-10.46,5.564-20.247,5.564
					c-9.473,0-16.025-1.816-19.655-5.446c-3.634-3.63-5.446-10.894-5.446-21.786c0-11.208,1.854-18.668,5.564-22.379
					c3.708-3.708,10.457-5.565,20.248-5.565c9.472,0,16.021,1.817,19.655,5.447C411.857,73.562,413.674,80.821,413.674,91.715z"/>
			</g>
			<g>
				<linearGradient id="SVGID_15_" gradientUnits="userSpaceOnUse" x1="43.063" y1="282.6602" x2="413.6738" y2="282.6602">
					<stop  offset="0" style="stop-color:#77B3E2"/>
					<stop  offset="0.1291" style="stop-color:#6BAEE0"/>
					<stop  offset="0.3438" style="stop-color:#44A2DA"/>
					<stop  offset="0.5843" style="stop-color:#0091D2"/>
					<stop  offset="1" style="stop-color:#007AC0"/>
				</linearGradient>
				<path fill="url(#SVGID_15_)" d="M413.674,91.715c0,11.212-1.857,18.671-5.565,22.379c-3.711,3.707-10.46,5.564-20.247,5.564
					c-9.473,0-16.025-1.816-19.655-5.446c-3.634-3.63-5.446-10.894-5.446-21.786c0-11.208,1.854-18.668,5.564-22.379
					c3.708-3.708,10.457-5.565,20.248-5.565c9.472,0,16.021,1.817,19.655,5.447C411.857,73.562,413.674,80.821,413.674,91.715z"/>
			</g>
		</g>
		<g>
			<g>
				<linearGradient id="SVGID_16_" gradientUnits="userSpaceOnUse" x1="43.063" y1="282.6602" x2="413.6738" y2="282.6602">
					<stop  offset="0" style="stop-color:#77B3E2"/>
					<stop  offset="0.1291" style="stop-color:#6BAEE0"/>
					<stop  offset="0.3438" style="stop-color:#44A2DA"/>
					<stop  offset="0.5843" style="stop-color:#0091D2"/>
					<stop  offset="1" style="stop-color:#007AC0"/>
				</linearGradient>
				<path fill="url(#SVGID_16_)" d="M399.262,513.461c0,0.521-0.229,0.977-0.678,1.367c-0.453,0.391-1.244,0.7-2.371,0.928
					c-1.131,0.229-2.625,0.423-4.488,0.586c-1.863,0.162-4.207,0.244-7.029,0.244c-2.709,0-5.025-0.082-6.943-0.244
					c-1.921-0.163-3.445-0.357-4.573-0.586c-1.13-0.228-1.921-0.537-2.371-0.928c-0.453-0.391-0.677-0.846-0.677-1.367V392.172
					c0-0.521,0.254-0.977,0.762-1.367c0.508-0.391,1.354-0.699,2.54-0.928c1.186-0.228,2.709-0.423,4.573-0.586
					c1.863-0.162,4.092-0.244,6.689-0.244c2.822,0,5.166,0.082,7.029,0.244c1.863,0.163,3.357,0.358,4.488,0.586
					c1.127,0.229,1.918,0.537,2.371,0.928c0.449,0.391,0.678,0.847,0.678,1.367V513.461z"/>
			</g>
			<g>
				<linearGradient id="SVGID_17_" gradientUnits="userSpaceOnUse" x1="43.063" y1="282.6602" x2="413.6738" y2="282.6602">
					<stop  offset="0" style="stop-color:#77B3E2"/>
					<stop  offset="0.1291" style="stop-color:#6BAEE0"/>
					<stop  offset="0.3438" style="stop-color:#44A2DA"/>
					<stop  offset="0.5843" style="stop-color:#0091D2"/>
					<stop  offset="1" style="stop-color:#007AC0"/>
				</linearGradient>
				<path fill="url(#SVGID_17_)" d="M399.262,513.461c0,0.521-0.229,0.977-0.678,1.367c-0.453,0.391-1.244,0.7-2.371,0.928
					c-1.131,0.229-2.625,0.423-4.488,0.586c-1.863,0.162-4.207,0.244-7.029,0.244c-2.709,0-5.025-0.082-6.943-0.244
					c-1.921-0.163-3.445-0.357-4.573-0.586c-1.13-0.228-1.921-0.537-2.371-0.928c-0.453-0.391-0.677-0.846-0.677-1.367V392.172
					c0-0.521,0.254-0.977,0.762-1.367c0.508-0.391,1.354-0.699,2.54-0.928c1.186-0.228,2.709-0.423,4.573-0.586
					c1.863-0.162,4.092-0.244,6.689-0.244c2.822,0,5.166,0.082,7.029,0.244c1.863,0.163,3.357,0.358,4.488,0.586
					c1.127,0.229,1.918,0.537,2.371,0.928c0.449,0.391,0.678,0.847,0.678,1.367V513.461z"/>
			</g>
			<g>
				<linearGradient id="SVGID_18_" gradientUnits="userSpaceOnUse" x1="43.063" y1="282.6602" x2="413.6738" y2="282.6602">
					<stop  offset="0" style="stop-color:#77B3E2"/>
					<stop  offset="0.1291" style="stop-color:#6BAEE0"/>
					<stop  offset="0.3438" style="stop-color:#44A2DA"/>
					<stop  offset="0.5843" style="stop-color:#0091D2"/>
					<stop  offset="1" style="stop-color:#007AC0"/>
				</linearGradient>
				<path fill="url(#SVGID_18_)" d="M399.262,513.461c0,0.521-0.229,0.977-0.678,1.367c-0.453,0.391-1.244,0.7-2.371,0.928
					c-1.131,0.229-2.625,0.423-4.488,0.586c-1.863,0.162-4.207,0.244-7.029,0.244c-2.709,0-5.025-0.082-6.943-0.244
					c-1.921-0.163-3.445-0.357-4.573-0.586c-1.13-0.228-1.921-0.537-2.371-0.928c-0.453-0.391-0.677-0.846-0.677-1.367V392.172
					c0-0.521,0.254-0.977,0.762-1.367c0.508-0.391,1.354-0.699,2.54-0.928c1.186-0.228,2.709-0.423,4.573-0.586
					c1.863-0.162,4.092-0.244,6.689-0.244c2.822,0,5.166,0.082,7.029,0.244c1.863,0.163,3.357,0.358,4.488,0.586
					c1.127,0.229,1.918,0.537,2.371,0.928c0.449,0.391,0.678,0.847,0.678,1.367V513.461z"/>
			</g>
		</g>
	</g>
</g>
</svg>
